<?xml version="1.0" encoding="UTF-8" standalone="no"?> <!-- Generator: Gravit.io --> <svg xmlns="http://www.w3.org/2000/svg" xmlns:xlink="http://www.w3.org/1999/xlink" style="isolation:isolate" viewBox="0 0 450 450" width="450" height="450"><defs><clipPath id="_clipPath_qVB7weQsWCuCY5mtU4X76ttcgd5vdtpD"><rect width="450" height="450"></rect></clipPath></defs><g clip-path="url(#_clipPath_qVB7weQsWCuCY5mtU4X76ttcgd5vdtpD)"><g id="Group"><rect x="213.158" y="17.55" width="11.842" height="112.5" transform="matrix(1,0,0,1,0,0)" fill="rgb(102,121,143)"></rect><path d=" M 165.789 281.676 C 149.447 281.657 136.204 268.413 136.184 252.071 L 136.184 130.263 C 136.184 113.945 149.471 100.658 165.789 100.658 L 272.368 100.658 C 288.687 100.658 301.974 113.945 301.974 130.263 L 301.974 252.071 C 301.974 268.389 288.687 281.676 272.368 281.676 L 165.789 281.676 Z " fill="rgb(200,209,219)"></path><path d=" M 272.368 106.579 C 285.43 106.579 296.053 117.201 296.053 130.263 L 296.053 252.071 C 296.053 265.133 285.43 275.755 272.368 275.755 L 165.789 275.755 C 152.728 275.755 142.105 265.133 142.105 252.071 L 142.105 130.263 C 142.105 117.201 152.728 106.579 165.789 106.579 L 272.368 106.579 Z M 272.368 94.737 L 165.789 94.737 C 146.169 94.737 130.263 110.643 130.263 130.263 L 130.263 252.071 C 130.263 271.692 146.169 287.597 165.789 287.597 L 272.368 287.597 C 291.989 287.597 307.895 271.692 307.895 252.071 L 307.895 130.263 C 307.895 110.643 291.989 94.737 272.368 94.737 Z " fill="rgb(102,121,143)"></path><rect x="38.629" y="124.911" width="36.379" height="100.658" transform="matrix(0.707,-0.707,0.707,0.707,-107.273,91.506)" fill="rgb(200,209,219)"></rect><path d=" M 34.093 135.166 L 96.892 197.964 L 79.543 215.313 L 16.745 152.514 L 34.093 135.166 Z M 34.093 118.421 L 0 152.514 L 79.555 232.07 L 113.649 197.976 L 34.093 118.421 Z " fill="rgb(102,121,143)"></path><path d=" M 53.289 288.438 L 53.289 216.45 L 98.029 171.711 L 236.842 171.711 C 253.161 171.711 266.447 184.997 266.447 201.316 L 266.447 288.438 L 53.289 288.438 Z " fill="rgb(200,209,219)"></path><path d=" M 236.842 177.632 C 249.904 177.632 260.526 188.254 260.526 201.316 L 260.526 282.517 L 59.211 282.517 L 59.211 218.901 L 100.492 177.632 L 236.842 177.632 Z M 236.842 165.789 L 95.578 165.789 L 47.368 213.999 L 47.368 294.359 L 272.368 294.359 L 272.368 201.316 C 272.368 181.695 256.463 165.789 236.842 165.789 Z " fill="rgb(102,121,143)"></path><rect x="319.164" y="180.748" width="100.658" height="36.367" transform="matrix(0.707,-0.707,0.707,0.707,-32.442,319.544)" fill="rgb(200,209,219)"></rect><path d=" M 392.222 158.85 L 409.571 176.199 L 346.772 238.997 L 329.424 221.649 L 392.222 158.85 Z M 392.222 142.105 L 312.667 221.661 L 346.761 255.754 L 426.316 176.199 L 392.222 142.105 Z " fill="rgb(102,121,143)"></path><path d=" M 230.921 279.983 L 230.921 225 C 230.921 208.682 243.533 195.395 259.034 195.395 L 330.241 195.395 L 373.026 240.063 L 373.026 279.983 L 230.921 279.983 Z " fill="rgb(200,209,219)"></path><path d=" M 327.707 201.316 L 367.105 242.443 L 367.105 274.062 L 236.842 274.062 L 236.842 225 C 236.842 211.938 246.801 201.316 259.034 201.316 L 327.707 201.316 Z M 332.763 189.474 L 259.034 189.474 C 240.241 189.474 225 205.378 225 225 L 225 285.904 L 378.947 285.904 L 378.947 237.695 L 332.763 189.474 Z " fill="rgb(102,121,143)"></path><path d=" M 70.034 413.42 C 68.246 384.549 53.503 367.378 39.221 350.751 C 23.684 332.657 7.65 313.982 6.051 278.289 L 443.984 278.289 C 442.8 314.905 430.662 333.651 418.903 351.805 C 408.292 368.183 397.35 385.082 396 413.42 L 70.034 413.42 Z " fill="rgb(200,209,219)"></path><path d=" M 437.767 284.211 C 435.624 315.107 425.049 331.413 413.941 348.584 C 403.603 364.536 392.957 380.972 390.493 407.499 L 75.446 407.499 C 72.178 380.049 57.73 363.221 43.709 346.879 C 29.155 329.933 15.312 313.816 12.399 284.211 L 437.767 284.211 Z M 450 272.368 L 0 272.368 C 0 351.711 64.291 355.299 64.291 419.341 L 401.791 419.341 C 401.791 355.299 450 352.504 450 272.368 Z " fill="rgb(102,121,143)"></path><rect x="343.421" y="319.737" width="47.368" height="11.842" transform="matrix(1,0,0,1,0,0)" fill="rgb(102,121,143)"></rect><rect x="177.632" y="59.211" width="82.895" height="11.842" transform="matrix(1,0,0,1,0,0)" fill="rgb(102,121,143)"></rect><path d=" M 94.737 230.921 C 94.737 221.117 102.696 213.158 112.5 213.158 C 122.304 213.158 130.263 221.117 130.263 230.921 C 130.263 240.725 122.304 248.684 112.5 248.684 C 102.696 248.684 94.737 240.725 94.737 230.921 Z " fill="rgb(102,121,143)"></path><path d=" M 165.789 230.921 C 165.789 221.117 173.749 213.158 183.553 213.158 C 193.356 213.158 201.316 221.117 201.316 230.921 C 201.316 240.725 193.356 248.684 183.553 248.684 C 173.749 248.684 165.789 240.725 165.789 230.921 Z " fill="rgb(102,121,143)"></path><path d=" M 272.368 242.763 C 272.368 232.959 280.328 225 290.132 225 C 299.935 225 307.895 232.959 307.895 242.763 C 307.895 252.567 299.935 260.526 290.132 260.526 C 280.328 260.526 272.368 252.567 272.368 242.763 Z " fill="rgb(102,121,143)"></path><path d=" M 207.237 41.447 L 207.237 17.763 C 207.237 11.238 212.554 5.921 219.079 5.921 C 225.604 5.921 230.921 11.238 230.921 17.763 L 230.921 41.447 L 207.237 41.447 Z " fill="rgb(200,209,219)"></path><path d=" M 219.079 11.842 C 222.349 11.842 225 14.493 225 17.763 L 225 35.526 L 213.158 35.526 L 213.158 17.763 C 213.158 14.493 215.809 11.842 219.079 11.842 Z M 219.079 0 C 209.269 0 201.316 7.953 201.316 17.763 L 201.316 47.368 L 236.842 47.368 L 236.842 17.763 C 236.842 7.953 228.889 0 219.079 0 Z " fill="rgb(102,121,143)"></path><path d=" M 70.034 413.42 C 68.613 389.984 58.82 374.767 47.901 361.184 L 412.993 361.184 C 404.408 375.146 397.054 389.818 395.988 413.42 L 70.034 413.42 Z " fill="rgb(247,143,143)"></path><path d=" M 402.726 367.105 C 395.857 379.563 391.681 393.324 390.47 407.499 L 75.458 407.499 C 73.48 390.612 67.334 378.024 59.779 367.105 L 402.726 367.105 Z M 423.711 355.263 L 35.289 355.263 C 50.08 372.932 64.279 388.67 64.279 419.341 L 401.779 419.341 C 401.791 388.504 412.532 372.967 423.711 355.263 Z " fill="rgb(199,67,67)"></path><path d=" M 0 450 L 450 450 L 450 389.333 C 434.511 386.218 416.226 378.947 402.632 378.947 C 385.366 378.947 360.45 390.789 343.421 390.789 C 326.392 390.789 301.476 378.947 284.211 378.947 C 266.945 378.947 242.029 390.789 225 390.789 C 207.971 390.789 183.055 378.947 165.789 378.947 C 148.524 378.947 123.608 390.789 106.579 390.789 C 89.55 390.789 64.634 378.947 47.368 378.947 C 33.774 378.947 15.489 386.218 0 389.333 L 0 450 Z " fill="rgb(139,183,240)"></path><path d=" M 402.632 378.947 C 385.366 378.947 360.45 390.789 343.421 390.789 C 326.392 390.789 301.476 378.947 284.211 378.947 C 266.945 378.947 242.029 390.789 225 390.789 C 207.971 390.789 183.055 378.947 165.789 378.947 C 148.524 378.947 123.608 390.789 106.579 390.789 C 89.55 390.789 64.634 378.947 47.368 378.947 C 33.774 378.947 15.489 386.218 0 389.333 L 0 401.447 C 6.797 400.228 13.855 398.238 20.771 396.296 C 30.387 393.596 40.334 390.789 47.368 390.789 C 54.403 390.789 64.35 393.596 73.966 396.296 C 85.026 399.411 96.466 402.632 106.579 402.632 C 116.692 402.632 128.132 399.411 139.192 396.296 C 148.808 393.596 158.755 390.789 165.789 390.789 C 172.824 390.789 182.771 393.596 192.387 396.296 C 203.447 399.411 214.887 402.632 225 402.632 C 235.113 402.632 246.553 399.411 257.613 396.296 C 267.229 393.596 277.176 390.789 284.211 390.789 C 291.245 390.789 301.192 393.596 310.808 396.296 C 321.868 399.411 333.308 402.632 343.421 402.632 C 353.534 402.632 364.974 399.411 376.034 396.296 C 385.65 393.596 395.597 390.789 402.632 390.789 C 409.666 390.789 419.613 393.596 429.229 396.296 C 436.145 398.25 443.203 400.228 450 401.447 L 450 389.333 C 434.511 386.218 416.226 378.947 402.632 378.947 Z " fill="rgb(78,122,181)"></path></g></g></svg> 